<svg width="16" height="12" viewBox="0 0 16 12" fill="none" xmlns="http://www.w3.org/2000/svg">
<path d="M0 0V4H16V0L0 0Z" fill="#002488"/>
<path d="M0.000366211 4V12H16.0004V4L0.000366211 4Z" fill="#DA121A"/>
<path d="M2.77411 0.566712C2.58149 0.884364 2.5585 1.13845 2.68997 1.5772C2.75327 1.78195 2.8228 2.08771 2.85201 2.25346C2.89097 2.48746 2.88689 2.50971 2.89236 2.56059C2.94105 2.56059 3.0517 2.56077 3.10287 2.56047C3.11022 2.47945 3.11617 2.38594 3.13344 2.25736C3.15358 2.10743 3.21332 1.79387 3.27756 1.57608C3.40595 1.14086 3.39735 0.873837 3.19772 0.571587C3.12468 0.459462 3.0273 0.366837 2.98348 0.366837C2.93966 0.366837 2.84052 0.452444 2.77411 0.566712Z" fill="#FCDD09"/>
<path d="M3.19391 2.35272C3.17737 2.43654 3.17334 2.46613 3.16504 2.56059C3.22406 2.56083 3.24725 2.56123 3.30479 2.56089C3.31738 2.49734 3.32645 2.46379 3.35421 2.37359C3.46424 2.02473 3.78833 1.88472 3.77372 2.21135C3.76885 2.30154 3.73084 2.35189 3.68852 2.40024C3.74083 2.38718 3.85192 2.33527 3.942 2.28409C4.44352 1.98184 4.24602 1.24122 3.72016 1.46547C3.44749 1.58247 3.2835 1.90637 3.19391 2.35272Z" fill="#FCDD09"/>
<path d="M2.60596 2.71156C2.82602 2.71314 3.20634 2.71599 3.38901 2.7144C3.38923 2.63816 3.38991 2.67707 3.39036 2.61545C3.25587 2.61363 2.7409 2.61664 2.607 2.61664C2.60731 2.6565 2.60669 2.6758 2.60596 2.71155L2.60596 2.71156Z" fill="#FCDD09"/>
<path d="M2.46741 3.08203C2.46741 3.08203 2.57703 3.09437 2.67926 3.08691C2.78149 3.07944 2.83821 3.06667 2.89863 3.03729C2.88222 3.15925 2.88128 3.27703 2.88128 3.27703C2.89615 3.434 2.91297 3.47417 2.94697 3.55056C2.99309 3.61428 3.01992 3.61463 3.05383 3.54734C3.09048 3.472 3.1146 3.39451 3.12226 3.2763C3.11959 3.18771 3.11465 3.14711 3.09369 3.03881C3.16442 3.06945 3.2091 3.0774 3.31463 3.08691C3.42261 3.09664 3.52187 3.09187 3.52187 3.09187C3.52187 3.09187 3.376 3.01858 3.3118 2.92869C3.24843 2.83996 3.26194 2.85505 3.21586 2.74074C3.15987 2.73808 2.87596 2.7407 2.78589 2.7407C2.73655 2.84491 2.73159 2.86667 2.67065 2.93243C2.59133 3.01803 2.46741 3.08203 2.46741 3.08203Z" fill="#FCDD09"/>
<path d="M2.26979 1.46531C2.54246 1.58231 2.70646 1.9062 2.79604 2.35256C2.81259 2.43637 2.81662 2.46596 2.82492 2.56042C2.7659 2.56066 2.7427 2.56107 2.68517 2.56072C2.67258 2.49717 2.66351 2.46362 2.63575 2.37342C2.52571 2.02457 2.20162 1.88456 2.21623 2.21118C2.2211 2.30137 2.25912 2.35173 2.30144 2.40007C2.24913 2.38702 2.13803 2.33511 2.04795 2.28392C1.54644 1.98167 1.74393 1.24106 2.26979 1.46531V1.46531Z" fill="#FCDD09"/>
<path d="M7.81415 0.566712C7.62152 0.884364 7.59854 1.13845 7.73001 1.5772C7.79331 1.78195 7.86284 2.08771 7.89205 2.25346C7.93101 2.48746 7.92693 2.50971 7.9324 2.56059C7.98109 2.56059 8.09174 2.56077 8.1429 2.56047C8.15026 2.47945 8.15621 2.38594 8.17348 2.25736C8.19362 2.10743 8.25336 1.79387 8.3176 1.57608C8.44599 1.14086 8.43739 0.873837 8.23776 0.571587C8.16472 0.459462 8.06734 0.366837 8.02352 0.366837C7.9797 0.366837 7.88056 0.452444 7.81415 0.566712Z" fill="#FCDD09"/>
<path d="M8.7602 1.46547C8.48753 1.58247 8.32354 1.90637 8.23395 2.35272C8.21741 2.43654 8.21337 2.46613 8.20508 2.56059C8.2641 2.56083 8.28729 2.56123 8.34483 2.56089C8.35742 2.49734 8.36649 2.46379 8.39424 2.37359C8.50428 2.02473 8.82837 1.88472 8.81376 2.21135C8.80889 2.30154 8.77088 2.35189 8.72856 2.40024C8.78087 2.38718 8.89196 2.33527 8.98204 2.28409C9.48356 1.98184 9.28606 1.24122 8.7602 1.46547V1.46547Z" fill="#FCDD09"/>
<path d="M7.646 2.71156C7.86606 2.71314 8.24638 2.71599 8.42905 2.7144C8.42927 2.63816 8.42995 2.67707 8.4304 2.61545C8.29591 2.61363 7.78094 2.61664 7.64704 2.61664C7.64735 2.6565 7.64673 2.6758 7.646 2.71155L7.646 2.71156Z" fill="#FCDD09"/>
<path d="M7.71069 2.93243C7.63136 3.01803 7.50745 3.08203 7.50745 3.08203C7.50745 3.08203 7.61707 3.09437 7.7193 3.08691C7.82152 3.07944 7.87825 3.06667 7.93867 3.03729C7.92226 3.15925 7.92132 3.27703 7.92132 3.27703C7.93619 3.434 7.95301 3.47417 7.98701 3.55056C8.03313 3.61428 8.05996 3.61463 8.09387 3.54734C8.13052 3.472 8.15464 3.39451 8.1623 3.2763C8.15963 3.18771 8.15469 3.14711 8.13373 3.03881C8.20446 3.06945 8.24914 3.0774 8.35467 3.08691C8.46265 3.09664 8.56191 3.09187 8.56191 3.09187C8.56191 3.09187 8.41604 3.01858 8.35184 2.92869C8.28847 2.83996 8.30198 2.85505 8.2559 2.74074C8.1999 2.73808 7.916 2.7407 7.82593 2.7407C7.77659 2.84491 7.77163 2.86667 7.71069 2.93243V2.93243Z" fill="#FCDD09"/>
<path d="M7.30983 1.46531C7.5825 1.58231 7.7465 1.9062 7.83608 2.35256C7.85263 2.43637 7.85666 2.46596 7.86496 2.56042C7.80594 2.56066 7.78274 2.56107 7.72521 2.56072C7.71261 2.49717 7.70355 2.46362 7.67579 2.37342C7.56575 2.02457 7.24166 1.88456 7.25627 2.21118C7.26114 2.30137 7.29916 2.35173 7.34147 2.40007C7.28916 2.38702 7.17807 2.33511 7.08799 2.28392C6.58648 1.98167 6.78397 1.24106 7.30983 1.46531V1.46531Z" fill="#FCDD09"/>
<path d="M12.8542 0.566712C12.6616 0.884364 12.6386 1.13845 12.77 1.5772C12.8333 1.78195 12.9029 2.08771 12.9321 2.25346C12.971 2.48746 12.967 2.50971 12.9724 2.56059C13.0211 2.56059 13.1318 2.56077 13.1829 2.56047C13.1903 2.47945 13.1962 2.38594 13.2135 2.25736C13.2337 2.10743 13.2934 1.79387 13.3576 1.57608C13.486 1.14086 13.4774 0.873837 13.2778 0.571587C13.2048 0.459462 13.1074 0.366837 13.0636 0.366837C13.0197 0.366837 12.9206 0.452444 12.8542 0.566712Z" fill="#FCDD09"/>
<path d="M13.8002 1.46547C13.5276 1.58247 13.3636 1.90637 13.274 2.35272C13.2574 2.43654 13.2534 2.46613 13.2451 2.56059C13.3041 2.56083 13.3273 2.56123 13.3849 2.56089C13.3975 2.49734 13.4065 2.46379 13.4343 2.37359C13.5443 2.02473 13.8684 1.88472 13.8538 2.21135C13.8489 2.30154 13.8109 2.35189 13.7686 2.40024C13.8209 2.38718 13.932 2.33527 14.0221 2.28409C14.5236 1.98184 14.3261 1.24122 13.8002 1.46547V1.46547Z" fill="#FCDD09"/>
<path d="M12.686 2.71156C12.9061 2.71314 13.2864 2.71599 13.4691 2.7144C13.4693 2.63816 13.47 2.67707 13.4704 2.61545C13.336 2.61363 12.821 2.61664 12.6871 2.61664C12.6874 2.6565 12.6868 2.6758 12.686 2.71155L12.686 2.71156Z" fill="#FCDD09"/>
<path d="M12.7507 2.93243C12.6714 3.01803 12.5475 3.08203 12.5475 3.08203C12.5475 3.08203 12.6571 3.09437 12.7593 3.08691C12.8616 3.07944 12.9183 3.06667 12.9787 3.03729C12.9623 3.15925 12.9614 3.27703 12.9614 3.27703C12.9762 3.434 12.9931 3.47417 13.027 3.55056C13.0732 3.61428 13.1 3.61463 13.1339 3.54734C13.1706 3.472 13.1947 3.39451 13.2023 3.2763C13.1997 3.18771 13.1947 3.14711 13.1738 3.03881C13.2445 3.06945 13.2892 3.0774 13.3947 3.08691C13.5027 3.09664 13.6019 3.09187 13.6019 3.09187C13.6019 3.09187 13.4561 3.01858 13.3919 2.92869C13.3285 2.83996 13.342 2.85505 13.2959 2.74074C13.2399 2.73808 12.956 2.7407 12.866 2.7407C12.8166 2.84491 12.8117 2.86667 12.7507 2.93243V2.93243Z" fill="#FCDD09"/>
<path d="M12.3499 1.46531C12.6225 1.58231 12.7865 1.9062 12.8761 2.35256C12.8927 2.43637 12.8967 2.46596 12.905 2.56042C12.846 2.56066 12.8228 2.56107 12.7652 2.56072C12.7527 2.49717 12.7436 2.46362 12.7158 2.37342C12.6058 2.02457 12.2817 1.88456 12.2963 2.21118C12.3012 2.30137 12.3392 2.35173 12.3815 2.40007C12.3292 2.38702 12.2181 2.33511 12.128 2.28392C11.6265 1.98167 11.824 1.24106 12.3499 1.46531V1.46531Z" fill="#FCDD09"/>
<path d="M5.69464 6.61671C5.80036 6.66605 5.93535 6.70494 6.00342 6.70724C6.08388 6.70995 6.06252 6.69015 5.91236 6.63168C5.79483 6.58575 5.65426 6.50852 5.59186 6.46063C5.48 6.36911 5.48 6.36911 5.49173 6.44963C5.49843 6.49563 5.58274 6.56715 5.69464 6.61671Z" fill="#008000"/>
<path d="M3.25698 6.47411C3.17421 6.53749 3.17908 6.54236 3.35924 6.51311C3.46636 6.49849 3.62217 6.46924 3.70007 6.44974C3.82667 6.41561 3.81693 6.41074 3.59782 6.40586C3.45175 6.40099 3.31541 6.43024 3.25698 6.47411Z" fill="#008000"/>
<path d="M2.04737 5.96156C2.85076 6.10781 4.46243 6.64893 4.36505 6.74156C4.34071 6.76593 3.88788 6.65381 3.82458 6.60993C3.80024 6.58556 3.56165 6.59531 3.29872 6.62943C2.80694 6.68306 2.72417 6.72693 2.73391 6.92681C2.73878 7.02431 2.73878 7.02431 2.76312 6.92681C2.80694 6.74643 2.87998 6.70743 3.15752 6.70743C3.4594 6.70743 4.28715 6.82931 4.65233 6.92681C5.13924 7.06331 5.15384 7.06331 4.99316 6.97556C4.78379 6.85856 4.4673 6.64406 4.40887 6.58068C4.30175 6.45881 2.35899 5.92256 2.07658 5.93231C1.94511 5.94206 1.94025 5.94206 2.04737 5.96156Z" fill="#008000"/>
<path d="M4.89854 6.52217C4.93749 6.59042 5.31728 6.78054 5.3465 6.75129C5.3611 6.73667 5.31728 6.69767 5.25885 6.66354C5.19555 6.62942 5.11278 6.57579 5.0787 6.53679C5.00079 6.46367 4.85472 6.44904 4.89854 6.52217Z" fill="#008000"/>
<path d="M4.92784 6.98533C4.96679 7.05358 5.34658 7.24371 5.37579 7.21446C5.3904 7.19983 5.34658 7.16083 5.28815 7.12671C5.22485 7.09258 5.14208 7.03896 5.10799 6.99996C5.03009 6.92683 4.88401 6.91221 4.92784 6.98533Z" fill="#008000"/>
<path d="M4.38352 6.40488C4.39052 6.39811 4.50008 6.4345 4.63005 6.48504C4.76003 6.53558 4.92792 6.58333 5.00015 6.58804C5.12746 6.59371 5.57826 6.80845 5.57392 6.86009C5.57308 6.90834 4.89145 6.69991 4.65253 6.57852C4.36576 6.4356 4.359 6.42859 4.38352 6.40488Z" fill="#008000"/>
<path d="M5.19001 6.76117C5.09917 6.79632 5.00783 6.85988 4.97944 6.90536C4.9459 6.95911 4.97429 6.95962 5.09144 6.9007C5.18331 6.8547 5.31595 6.81697 5.38872 6.81076C5.52498 6.80403 5.52498 6.80403 5.43826 6.74978C5.38871 6.71878 5.28342 6.72189 5.19001 6.76117Z" fill="#008000"/>
<path d="M2.91124 5.11818C3.06219 5.40581 3.67569 6.06881 4.01653 6.32231C4.10904 6.39056 4.27459 6.45881 4.37684 6.47343L4.56673 6.50268L4.42553 6.34668C4.19668 6.09806 3.84611 5.62031 3.73412 5.41068C3.61239 5.18156 3.59779 5.24006 3.70004 5.53256C3.73899 5.64956 3.8948 5.88356 4.04574 6.04931C4.19668 6.21993 4.29406 6.36131 4.26972 6.36131C4.20642 6.36131 3.79742 5.87868 3.50527 5.45943C3.18878 5.00118 3.17417 4.98656 3.26182 5.24006C3.30564 5.36193 3.40302 5.54231 3.4858 5.63981C3.5637 5.74218 3.61239 5.82506 3.58805 5.82506C3.53936 5.82506 3.32512 5.58131 3.05732 5.23031C2.98428 5.12793 2.88203 4.99631 2.83821 4.93781C2.78952 4.87443 2.8236 4.95731 2.91124 5.11818Z" fill="#008000"/>
<path d="M10.2741 8.88289C10.4323 8.95148 11.2526 9.15861 11.833 9.32879C12.4134 9.49897 13.092 9.69489 13.2422 9.716C13.4569 9.24746 13.0662 10.1238 13.2892 9.59268C12.9993 9.51881 11.8567 9.24965 11.3982 9.11773C11.0029 9.00691 10.4421 8.83405 10.2985 8.80239C10.1549 8.77073 10.1529 8.83012 10.2741 8.88289Z" fill="#008000"/>
<path d="M10.3744 8.76126C10.5348 8.82429 11.3619 9.00263 11.9478 9.15242C12.5338 9.30222 13.2189 9.47431 13.3697 9.49015C13.5679 9.0144 13.208 9.90388 13.4123 9.36528C13.1201 9.30157 11.9688 9.0725 11.5059 8.95668C11.107 8.85975 10.5406 8.70659 10.396 8.67997C10.2513 8.65334 10.2514 8.71276 10.3744 8.76126Z" fill="#008000"/>
<path d="M10.1474 8.97128C10.3017 9.04807 11.1101 9.29789 11.6808 9.49825C12.2515 9.69861 12.9189 9.92982 13.0678 9.95877C13.3067 9.50213 12.8707 10.3568 13.1212 9.83809C12.8356 9.74912 11.7086 9.42046 11.2576 9.26469C10.8686 9.13332 10.3177 8.93131 10.1759 8.89217C10.0342 8.85303 10.0291 8.91223 10.1474 8.97128Z" fill="#008000"/>
<path d="M10.0489 9.07109C10.199 9.15586 10.9932 9.44771 11.5526 9.6777C12.1121 9.90769 12.7665 10.1736 12.9137 10.2103C13.1761 9.76677 12.6961 10.5974 12.9733 10.0925C12.6927 9.98873 11.5845 9.60147 11.1422 9.42228C10.7607 9.27071 10.221 9.04011 10.0815 8.99359C9.94199 8.94707 9.93383 9.00593 10.0489 9.07109Z" fill="#008000"/>
<path d="M9.95609 9.19684C10.1031 9.28681 10.8867 9.60622 11.4378 9.85562C11.9889 10.105 12.6337 10.3936 12.7795 10.4354C13.0572 10.0014 12.5485 10.8148 12.8431 10.3199C12.5663 10.2063 11.4723 9.78055 11.0365 9.58602C10.6605 9.42121 10.1292 9.17189 9.99141 9.12053C9.85359 9.06916 9.84339 9.1277 9.95609 9.19684Z" fill="#008000"/>
<path d="M8.31355 10.4605C8.53963 10.6182 8.78751 10.583 8.69162 10.3673L8.63568 10.2416L8.81334 10.319C9.0672 10.4262 9.3024 10.3402 9.16377 10.1492L9.08292 10.0378L9.2728 10.0765C9.54337 10.1285 9.75554 9.9955 9.58031 9.83751L9.47809 9.74535L9.67187 9.74378C9.94732 9.73834 10.1273 9.56409 9.92304 9.44604L9.8039 9.37715L9.99314 9.33531C10.2614 9.27257 10.4012 9.06463 10.1769 8.99168L10.0461 8.94919L10.2225 8.86883C10.4719 8.75164 10.5655 8.51914 10.3309 8.49448L10.1942 8.48013L10.35 8.36478C10.5696 8.19828 10.6129 7.95133 10.3784 7.97605L10.2416 7.99041L10.3701 7.84515C10.5503 7.63656 10.5414 7.38608 10.3171 7.45903L10.1863 7.50155L10.2818 7.33277C10.4147 7.0912 10.3539 6.84809 10.1497 6.96608L10.0306 7.03494L10.089 6.84994C10.1689 6.58599 10.059 6.36077 9.88373 6.51875L9.78152 6.61092L9.80022 6.41783C9.82355 6.14293 9.66926 5.94557 9.53066 6.13657L9.44981 6.24801L9.42801 6.05522C9.39378 5.78156 9.20184 5.62056 9.10592 5.83625L9.04998 5.96211L8.9886 5.77805C8.89827 5.51748 8.67713 5.39996 8.62809 5.63089L8.59951 5.76563L8.50125 5.59843C8.35878 5.36227 8.11806 5.29347 8.11806 5.52953V5.66723L7.98722 5.52412C7.79888 5.32289 7.54907 5.30558 7.5981 5.53657L7.62666 5.67125L7.46899 5.55849C7.24291 5.40082 6.99503 5.43592 7.09089 5.65161L7.14683 5.77747L6.96918 5.7C6.71531 5.59283 6.48011 5.67882 6.61877 5.86982L6.69959 5.9812L6.50974 5.9424C6.23917 5.89041 6.027 6.02347 6.20223 6.18142L6.30445 6.27358L6.11067 6.27515C5.83522 6.28062 5.65529 6.45493 5.85951 6.57298L5.97861 6.64184L5.78941 6.68368C5.52111 6.74637 5.38134 6.95431 5.60561 7.02726L5.73644 7.06983L5.56004 7.15016C5.31063 7.26738 5.21704 7.49979 5.45156 7.52448L5.58835 7.5389L5.43249 7.65418C5.21286 7.82074 5.1696 8.06763 5.40412 8.04294L5.54091 8.02859L5.41241 8.17378C5.23218 8.38243 5.24117 8.63292 5.46544 8.55996L5.59627 8.51742L5.50075 8.68625C5.36777 8.92779 5.42856 9.1709 5.63278 9.05288L5.75192 8.98399L5.69355 9.169C5.61362 9.43301 5.72358 9.65816 5.89881 9.50018L6.00102 9.40802L5.98233 9.6012C5.95899 9.876 6.11328 10.0734 6.25188 9.88237L6.33273 9.77099L6.35456 9.9638C6.3888 10.2375 6.5807 10.3984 6.67662 10.1827L6.73253 10.0569L6.79391 10.2409C6.88425 10.5015 7.10538 10.619 7.15442 10.388L7.183 10.2534L7.28126 10.4206C7.42373 10.6567 7.66446 10.7256 7.66446 10.4895V10.3517L7.79529 10.4949C7.98363 10.6961 8.23341 10.7134 8.18441 10.4825L8.15582 10.3478L8.31355 10.4605Z" fill="#FCDD09"/>
</svg>
