<?xml version="1.0" encoding="UTF-8"?><svg xmlns="http://www.w3.org/2000/svg" viewBox="0 0 2429.81 307"><g id="Laag_1"><g id="In_kleur"><path d="M191.8,153h-38.4v-74c0-22.2-18.1-40.2-40.2-40.2s-40.2,18.1-40.2,40.2v74h-38.4v-74C34.6,35.7,69.9.4,113.2.4s78.6,35.3,78.6,78.6v74Z" style="fill:#bbc7cc; stroke-width:0px;"/><path d="M182.5,63.1c-2.9,1.3-4.2,3.9-5.4,6.5.3-6.8.6-13.7-.1-20.3-.4-3.3-.8-6.8-3.9-8.8-2.3-1.5-6.4.2-7.5-.5-2.2-1.4-1.8-14.9-3.4-18.6-3.1-6.9-13-10.4-19-14.1-1.2-.7-2.5-1.6-3.7-2.5C131.4,2,122.8.4,113.7.4c-2.6,0-5.2.1-7.8.4-.5.4-1,.9-1.6,1.3-.8.5-1.3,1.1-1.9-.2-.1-.2-.3-.4-.5-.6-3.2.5-6.4,1.2-9.5,2.1-5.2,2.8-9.9,6.4-15.2,9.4-6,3.3-10,8.1-14.5,13.6-13.6,16.7-21.3,36.2-27.5,56.7-.1.2-.1.4-.1.6v.7c.4,2.3,3.7,3.3,5.4,1.6,1.5,4.8-.2,11.1-.1,15.9.2,4.3,1,8.4,2,12.5.6,2.6,5.8,3.4,7.1,1.1,3.6-4.2,1-4.9,3.2.2.4,3.1,6.8,3.5,7.3.6,2.3-4,2.5-3.6,4.3.2.8,2.1,5.7,1.7,6.6-.3,1.2-2.7,2-5.3,2.5-8v-29.1c0-18.9,13.2-34.8,30.8-39.1,1.1-6,4-16.7,6.3-18.6,1.8,3.6-1.4,11.1-1.1,17.6,1.4-.1,2.8-.2,4.2-.2,1.6,0,3.1.1,4.6.3,1.3-4.2,1.5-8.9,3.1-9.1,1.8,1.8.3,6.8.4,9.6,11.9,2.4,21.9,10.1,27.4,20.5.1-.2.1-.4.1-.5.4-2.6,1.1-17.5,2.5-18,2.6-.6,1.5,15.2.1,23.1-.1.4-.1.8-.2,1.3,1.4,4.1,2.2,8.5,2.2,13.1v7.1c1.1,1.5,2.5,2.5,4.9,2.8.7.8,2.9-.9,3.6.2,1.7,3.7.9,4.9,1.8,9.5.8,5.8.6,10.1-.1,15.3-.3,1.9.8,4,3,4,5-.2,10.3-8.6,13.3-12.4,0,2-1.9,9.2-1.9,11.1,0,3.6,8.2,3.4,9.5.2,7.2-18.5,1.5-42.5-.8-50.8-.6-2.6-2.5-4-4.6-3Z" style="fill:#bbc7cc; isolation:isolate; opacity:.2; stroke-width:0px;"/><rect x="7.3" y="276.8" width="211.9" height="16.5" style="fill:#bbc7cc; stroke-width:0px;"/><path d="M219.2,269.2H7.3V118.3c0-6.4,5.2-11.7,11.7-11.7h188.6c6.4,0,11.7,5.2,11.7,11.7v150.9h-.1Z" style="fill:#fbc43e; stroke-width:0px;"/><path d="M214.8,158.3c-10.2,11.1-22.8,27-31.2,39.3,8-17.9,16.1-35.7,24.7-53.3,2.9-6.1-5-10.6-8.9-5.2-9.1,12.5-18.1,25.2-26.9,37.9,11.4-21.5,22.7-43.7,38.6-61.9-2.5-2.5-5.5-4.6-8.8-6.1-10.5,10.4-20.4,21.4-29.7,32.8,1.7-8.3,8.6-20.2,10.8-27.7.8-2.7-.2-5.9-2.2-7.5h-5.9c-1.1.7-2.3,1.8-3.6,3.4-7.1,9.3-19.5,24-31.1,38.3,9-17.7,17.2-33.2,22.1-41.7h-15.5c-15.2,15.8-39,40.3-54.6,56.7l-4.9,2.8c11.4-16.4,31.8-45.3,39.3-53,2-2.1,1.8-4.7.5-6.5h-8.5c-9.8,10.3-26.7,32.6-38.9,49.5,7.6-13.6,14.8-27.1,21.6-41.6,2.4-5.1-3.8-10.7-8.1-6.3-13.7,13.8-26.6,28.4-38.7,43.5,5.4-10.4,14.6-26.1,20-36.4,2.6-5-4.1-10.9-8.1-6.3-8.9,10.3-21.3,26.2-29.9,36.7,5.3-9.4,12.4-21.5,17.6-31,2.8-5.1-3.9-10.5-8.1-6.3-6.6,6.6-14.9,16-21.3,22.8,2.4-4.6,6.8-12.1,9.2-16.8,1.6-3.1-.1-6.5-2.9-7.5-2.1.3-4.1.9-6.1,1.7-3.4,2.4-7.7,6.3-10.5,8.2.4-.7.9-1.3,1.3-2,.1-.2.2-.3.3-.5-5.5,5.2-8.9,12.5-8.9,20.6v.2c2.1-1.8,4.3-3.5,6.5-5.2-2.1,4-4.3,8-6.5,12v23.8c5.4-6.1,10.9-12.2,16.5-18.2-5.5,9.7-11,19.4-16.5,29v23.6c10.5-14,21.2-27.8,32.1-41.4-10.7,20.5-21.4,41-32.1,61.5v22.5c18-32.9,43.5-66.1,67-94.4-3.6,11.5-14,25.1-20.7,35.9-10.8,17.5-18.8,34.7-26.9,50.7-4.9,9-13,23.5-17.6,34.1h12.5c5.5-9.7,11-20.6,16.5-28.6,5.8-8.6,11.4-17.5,17-26.3-4.8,11.8-10.4,24.4-19.4,38.1-3.6,5.6,3.5,12.8,7.3,7.3,16.4-23.9,29.9-41.2,43.5-60.2,1.2-2.8,30.2-40.4,39.3-52.9h0c.5.3,1.1.7,1.6,1,.9.6-43.5,81.2-47.4,91.8-4.9,7.8-10.3,15.8-14.9,22.6-1.7,2.4-3.3,4.7-5,7.1h12.6c.4-.6.9-1.3,1.3-1.9,7-9.9,13-20,18.8-28.3,1.6-1.4,2.8-2.2,3-1.7,3-5.7,9.7-19.3,17.9-35.7l-5.2,35.5c-4.7,8-9.4,16-14,24-3.4,5.8,5.3,10.7,8.9,5.2,9.5-14.1,17.9-28.9,25.9-43.8,11.6-19,23.7-37.7,36.9-55.5-1.9,3.6-3.9,7.2-5.9,10.8-15,27.1-30.4,54.1-43.1,82.4-2.7,6,5.3,11,8.9,5.2,15.8-25.1,32.2-49.8,49-74.2-11.5,25.9-22.6,51.9-33.6,78h12.6c11.6-22.7,23.7-45.1,38.1-66-10.1,22-20.1,44-30.2,66h11.8c3.6-6.8,7.5-13.5,11.6-20-2.5,5.9-5.8,13.8-8.4,20h12.1c2.4-3.8,4.9-7.9,7.1-11-.5,2.4-1.6,7.3-2.5,11h12.8c1.3-2.3,2.6-4.5,3.7-5.9.3,1.3.6,2.5,1.1,3.7.4.9.7,1.6.9,2.2h6.7v-20.1c-1.2-3.3-5.8-5.4-8.5-2.2-.5.6-1.1,1.3-1.6,1.9,1.1-4.6,2.3-9.1,4.1-13.2,1.8-4.3-2.5-6.9-6.1-6-.7.1-1.3.3-1.9.7,3.7-8,9.3-18.3,14.1-27.1v-13.1c-2-.5-4.2,0-5.8,2.1-3,4-8.9,11.7-11.9,15.8,4.9-10.6,12-23.9,17.7-35.5v-15.5c-1.4-.3-3,.1-4.4,1.6Z" style="fill:#fbc43e; isolation:isolate; opacity:.2; stroke-width:0px;"/><path d="M167.5,139.4c-6.6-6.6-17.4-6.6-24,0l-46.1,44.8-14.4-14.5c-6.6-6.6-17.4-6.6-24,0l-5.5,5.5c-6.6,6.6-6.6,17.4,0,24l24.8,24.8c.4.6.9,1.1,1.4,1.7l5.5,5.5,12.3,11.7,10.3-10.3c.6-.4,1.1-.9,1.7-1.4l5.5-5.5c.5-.5,1-1.1,1.4-1.7l56.5-55.2c6.6-6.6,6.6-17.4,0-24l-5.4-5.4Z" style="fill:#000; stroke-width:0px;"/></g></g><g id="Laag_2"><path d="M345.99,141.48h-12.87v-21.98h62.96c25.74,0,43.76,15.84,43.76,42.37s-17.42,35.84-23.36,37.03v.4s4.36,1.98,6.93,7.13l13.66,27.13c2.18,4.16,5.54,4.55,9.9,4.55h2.57v21.98h-13.66c-10.49,0-15.05-1.58-19.6-10.49l-18.02-35.44c-2.97-5.54-5.94-6.53-13.27-6.53h-13.07v52.47h-25.94v-118.6ZM392.52,185.43c13.07,0,20.79-8.12,20.79-22.18s-7.72-21.78-20.39-21.78h-20.99v43.96h20.59Z" style="fill:#000; stroke-width:0px;"/><path d="M507.75,156.72c28.91,0,44.75,21.19,44.75,47.92,0,2.97-.59,9.31-.59,9.31h-69.7c1.98,17.82,15.05,27.13,30.29,27.13,16.24,0,28.31-11.29,28.31-11.29l10.49,17.42s-15.44,15.25-40.59,15.25c-33.46,0-54.25-24.16-54.25-52.87,0-31.09,20.99-52.87,51.28-52.87ZM526.76,196.52c-.4-12.08-8.71-20.39-19.01-20.39-12.87,0-21.98,7.72-24.75,20.39h43.76Z" style="fill:#000; stroke-width:0px;"/><path d="M626.95,196.72h3.17v-.79c0-14.45-5.74-19.8-18.61-19.8-4.55,0-13.46,1.19-13.46,6.73v5.35h-23.36v-10.69c0-18.81,26.53-20.79,37.03-20.79,33.66,0,43.56,17.62,43.56,40.19v37.62c0,2.77,1.58,4.36,4.36,4.36h7.92v21.19h-22.57c-9.31,0-12.87-5.15-12.87-11.09,0-2.57.2-4.36.2-4.36h-.4s-7.72,17.82-30.49,17.82c-18.02,0-34.45-11.29-34.45-31.48,0-31.68,43.56-34.25,59.99-34.25ZM607.54,242.85c13.46,0,22.97-14.26,22.97-26.53v-2.38h-4.36c-13.07,0-33.86,1.78-33.86,15.84,0,6.73,4.95,13.07,15.25,13.07Z" style="fill:#000; stroke-width:0px;"/><path d="M687.14,145.24c0-2.97-1.58-4.36-4.36-4.36h-7.92v-21.38h23.96c9.31,0,13.46,4.16,13.46,13.46v101.57c0,2.77,1.58,4.36,4.36,4.36h7.72v21.19h-23.76c-9.5,0-13.46-3.96-13.46-13.46v-101.38Z" style="fill:#000; stroke-width:0px;"/><path d="M744.75,145.24c0-2.97-1.58-4.36-4.36-4.36h-7.92v-21.38h23.96c9.31,0,13.46,4.16,13.46,13.46v101.57c0,2.77,1.58,4.36,4.36,4.36h7.72v21.19h-23.76c-9.5,0-13.46-3.96-13.46-13.46v-101.38Z" style="fill:#000; stroke-width:0px;"/><path d="M810.88,280.47c6.93,0,13.07-4.16,16.63-12.87l3.37-7.72-33.66-75.83c-1.19-2.97-2.57-3.56-5.35-3.56h-2.97v-21.38h16.63c7.13,0,10.69,2.57,13.27,9.5l19.8,50.49c1.98,5.15,3.56,13.46,3.56,13.46h.4s1.58-8.32,3.37-13.46l17.23-50.49c2.38-6.93,6.53-9.5,13.46-9.5h17.03v21.38h-2.97c-2.97,0-4.55.59-5.74,3.56l-36.23,91.28c-7.13,18.22-21.38,26.33-36.43,26.33-15.84,0-25.54-10.3-25.54-10.3l9.7-17.82s6.14,6.93,14.45,6.93Z" style="fill:#000; stroke-width:0px;"/><path d="M969.48,222.46s14.45,16.63,34.06,16.63c10.69,0,20.2-5.74,20.2-16.63,0-23.96-66.13-21.98-66.13-65.74,0-22.77,19.8-39.6,46.93-39.6,16.43,0,41.78,7.72,41.78,27.72v13.07h-23.36v-6.34c0-6.53-9.31-10.89-18.61-10.89-11.88,0-20.59,6.14-20.59,15.05,0,23.96,66.13,19.21,66.13,65.34,0,22.37-17.23,41.38-46.73,41.38-31.09,0-48.31-21.78-48.31-21.78l14.65-18.22Z" style="fill:#000; stroke-width:0px;"/><path d="M1074.42,184.84c0-2.97-1.58-4.36-4.36-4.36h-7.92v-21.38h23.96c9.31,0,13.27,4.16,13.27,13.46v61.97c0,2.77,1.58,4.36,4.36,4.36h7.92v21.19h-23.96c-9.31,0-13.27-3.96-13.27-13.46v-61.78ZM1075.61,119.5h21.78v23.17h-21.78v-23.17Z" style="fill:#000; stroke-width:0px;"/><path d="M1132.83,184.84c0-2.97-1.58-4.36-4.36-4.36h-7.92v-21.38h23.17c8.91,0,13.27,4.16,13.27,11.29v2.97c0,2.18-.2,4.36-.2,4.36h.4c4.75-9.9,16.83-20.99,32.67-20.99s25.15,7.13,29.5,20.79h.4c5.35-10.89,18.41-20.79,34.45-20.79,20.99,0,33.07,11.88,33.07,38.41v39.4c0,2.77,1.58,4.36,4.36,4.36h7.72v21.19h-23.76c-9.5,0-13.46-3.96-13.46-13.46v-46.73c0-11.48-2.18-20.2-13.86-20.2-12.47,0-21.38,10.49-24.16,23.17-1.19,3.96-1.58,8.12-1.58,12.87v44.35h-25.15v-60.19c0-10.89-1.58-20.2-13.66-20.2-12.67,0-21.19,10.49-24.35,23.36-.99,3.96-1.58,8.12-1.58,12.67v44.35h-24.95v-75.24Z" style="fill:#000; stroke-width:0px;"/><path d="M1319.54,184.84c0-2.97-1.58-4.36-4.36-4.36h-7.92v-21.38h22.37c9.31,0,12.67,4.16,12.67,9.7v3.96h.4s8.51-16.04,32.08-16.04c27.32,0,44.95,21.58,44.95,52.87s-19.8,52.87-46.33,52.87c-20,0-28.91-13.27-28.91-13.27h-.4s.4,3.56.4,8.71v41.78h-24.95v-114.84ZM1368.84,241.27c13.86,0,25.54-11.29,25.54-31.28s-10.3-31.68-25.15-31.68c-13.07,0-25.34,9.5-25.34,31.88,0,15.64,8.32,31.09,24.95,31.09Z" style="fill:#000; stroke-width:0px;"/><path d="M1440.32,145.24c0-2.97-1.58-4.36-4.36-4.36h-7.92v-21.38h23.96c9.31,0,13.46,4.16,13.46,13.46v101.57c0,2.77,1.58,4.36,4.36,4.36h7.72v21.19h-23.76c-9.5,0-13.46-3.96-13.46-13.46v-101.38Z" style="fill:#000; stroke-width:0px;"/><path d="M1539.71,156.72c28.91,0,44.75,21.19,44.75,47.92,0,2.97-.59,9.31-.59,9.31h-69.7c1.98,17.82,15.05,27.13,30.29,27.13,16.24,0,28.31-11.29,28.31-11.29l10.49,17.42s-15.44,15.25-40.59,15.25c-33.46,0-54.25-24.16-54.25-52.87,0-31.09,20.99-52.87,51.28-52.87ZM1558.72,196.52c-.4-12.08-8.71-20.39-19.01-20.39-12.87,0-21.98,7.72-24.75,20.39h43.76Z" style="fill:#000; stroke-width:0px;"/><path d="M1665.84,222.46s14.45,16.63,34.06,16.63c10.69,0,20.2-5.74,20.2-16.63,0-23.96-66.13-21.98-66.13-65.74,0-22.77,19.8-39.6,46.92-39.6,16.43,0,41.78,7.72,41.78,27.72v13.07h-23.36v-6.34c0-6.53-9.31-10.89-18.61-10.89-11.88,0-20.59,6.14-20.59,15.05,0,23.96,66.13,19.21,66.13,65.34,0,22.37-17.23,41.38-46.73,41.38-31.09,0-48.31-21.78-48.31-21.78l14.65-18.22Z" style="fill:#000; stroke-width:0px;"/><path d="M1812.16,156.72c28.91,0,44.75,21.19,44.75,47.92,0,2.97-.59,9.31-.59,9.31h-69.7c1.98,17.82,15.05,27.13,30.29,27.13,16.24,0,28.31-11.29,28.31-11.29l10.49,17.42s-15.44,15.25-40.59,15.25c-33.46,0-54.25-24.16-54.25-52.87,0-31.09,20.99-52.87,51.28-52.87ZM1831.16,196.52c-.4-12.08-8.71-20.39-19.01-20.39-12.87,0-21.98,7.72-24.75,20.39h43.76Z" style="fill:#000; stroke-width:0px;"/><path d="M1926.4,156.72c13.07,0,36.63,5.35,36.63,22.77v11.88h-22.18v-5.54c0-5.54-8.32-7.92-14.45-7.92-17.42,0-29.9,13.27-29.9,31.48,0,20.59,15.25,31.09,31.48,31.09,17.23,0,29.9-13.66,29.9-13.66l10.49,17.42s-15.05,18.22-42.57,18.22c-33.26,0-54.65-23.56-54.65-52.87s20.59-52.87,55.24-52.87Z" style="fill:#000; stroke-width:0px;"/><path d="M1987.38,184.84c0-2.97-1.58-4.36-4.36-4.36h-7.92v-21.38h23.96c9.31,0,13.27,4.16,13.27,13.27v46.53c0,12.28,3.17,20.59,15.64,20.59,18.21,0,28.31-16.04,28.31-34.06v-46.33h25.15v75.44c0,2.77,1.58,4.36,4.36,4.36h7.92v21.19h-23.17c-8.71,0-13.27-4.16-13.27-11.29v-2.77c0-2.38.2-4.55.2-4.55h-.4c-4.75,10.49-17.42,20.99-34.85,20.99-21.58,0-34.85-10.89-34.85-38.41v-39.2Z" style="fill:#000; stroke-width:0px;"/><path d="M2114.1,184.84c0-2.97-1.58-4.36-4.36-4.36h-7.92v-21.38h22.97c8.91,0,13.46,3.76,13.46,12.28v5.94c0,3.76-.4,6.34-.4,6.34h.4c4.55-14.45,16.63-25.94,32.08-25.94,2.18,0,4.55.4,4.55.4v24.75s-2.57-.4-6.14-.4c-10.69,0-22.97,6.14-27.52,21.19-1.39,4.95-2.18,10.49-2.18,16.43v40h-24.95v-75.24Z" style="fill:#000; stroke-width:0px;"/><path d="M2196.47,184.84c0-2.97-1.58-4.36-4.36-4.36h-7.92v-21.38h23.96c9.31,0,13.27,4.16,13.27,13.46v61.97c0,2.77,1.58,4.36,4.36,4.36h7.92v21.19h-23.96c-9.31,0-13.27-3.96-13.27-13.46v-61.78ZM2197.65,119.5h21.78v23.17h-21.78v-23.17Z" style="fill:#000; stroke-width:0px;"/><path d="M2255.27,179.1h-13.07v-20h13.66v-27.52h24.55v27.52h22.97v20h-22.97v40.79c0,16.63,13.07,19.01,20,19.01,2.77,0,4.55-.4,4.55-.4v21.98s-3.17.59-7.72.59c-14.06,0-41.98-4.16-41.98-38.02v-43.96Z" style="fill:#000; stroke-width:0px;"/><path d="M2334.07,280.47c6.93,0,13.07-4.16,16.63-12.87l3.37-7.72-33.66-75.83c-1.19-2.97-2.57-3.56-5.35-3.56h-2.97v-21.38h16.63c7.13,0,10.69,2.57,13.27,9.5l19.8,50.49c1.98,5.15,3.56,13.46,3.56,13.46h.4s1.58-8.32,3.37-13.46l17.23-50.49c2.38-6.93,6.53-9.5,13.46-9.5h17.03v21.38h-2.97c-2.97,0-4.55.59-5.74,3.56l-36.23,91.28c-7.13,18.22-21.38,26.33-36.43,26.33-15.84,0-25.54-10.3-25.54-10.3l9.7-17.82s6.14,6.93,14.45,6.93Z" style="fill:#000; stroke-width:0px;"/></g></svg>