<svg xmlns="http://www.w3.org/2000/svg" xmlns:xlink="http://www.w3.org/1999/xlink" version="1.1" x="0px" y="0px" style="enable-background:new 0 0 2293 602.6;" xml:space="preserve" viewBox="164.7 150.3 1963.4 301.5"><style type="text/css">	.st0{fill:#BBC7CC;}	.st1{opacity:0.2;fill:#BBC7CC;}	.st2{fill:#FBC43E;}	.st3{opacity:0.2;fill:#FBC43E;}	.st4{display:none;}	.st5{display:inline;}	.st6{fill:#FFFFFF;}</style>    <g id="In_kleur">	<g>		<path d="M503.9,291.8h-12.9v-22H554c25.7,0,43.7,15.8,43.7,42.4c0,25.3-17.4,35.8-23.4,37v0.4c0,0,4.4,2,6.9,7.1l13.7,27.1    c2.2,4.2,5.5,4.6,9.9,4.6h2.6v22h-13.7c-10.5,0-15-1.6-19.6-10.5l-18-35.4c-3-5.5-5.9-6.5-13.3-6.5h-13.1v52.4h-25.9V291.8z     M550.5,335.7c13.1,0,20.8-8.1,20.8-22.2c0-13.9-7.7-21.8-20.4-21.8h-21v43.9H550.5z"></path>        <path d="M665.6,307c28.9,0,44.7,21.2,44.7,47.9c0,3-0.6,9.3-0.6,9.3h-69.7c2,17.8,15,27.1,30.3,27.1c16.2,0,28.3-11.3,28.3-11.3    l10.5,17.4c0,0-15.4,15.2-40.6,15.2c-33.4,0-54.2-24.1-54.2-52.8C614.4,328.8,635.4,307,665.6,307z M684.6,346.8    c-0.4-12.1-8.7-20.4-19-20.4c-12.9,0-22,7.7-24.7,20.4H684.6z"></path>        <path d="M784.8,347h3.2v-0.8c0-14.4-5.7-19.8-18.6-19.8c-4.6,0-13.5,1.2-13.5,6.7v5.3h-23.4v-10.7c0-18.8,26.5-20.8,37-20.8    c33.6,0,43.5,17.6,43.5,40.2v37.6c0,2.8,1.6,4.4,4.4,4.4h7.9v21.2h-22.6c-9.3,0-12.9-5.1-12.9-11.1c0-2.6,0.2-4.4,0.2-4.4h-0.4    c0,0-7.7,17.8-30.5,17.8c-18,0-34.4-11.3-34.4-31.5C724.8,349.6,768.4,347,784.8,347z M765.4,393.1c13.5,0,23-14.2,23-26.5v-2.4    H784c-13.1,0-33.8,1.8-33.8,15.8C750.1,386.8,755.1,393.1,765.4,393.1z"></path>        <path d="M844.9,295.6c0-3-1.6-4.4-4.4-4.4h-7.9v-21.4h23.9c9.3,0,13.5,4.2,13.5,13.5v101.5c0,2.8,1.6,4.4,4.4,4.4h7.7v21.2h-23.7    c-9.5,0-13.5-4-13.5-13.5V295.6z"></path>        <path d="M902.5,295.6c0-3-1.6-4.4-4.4-4.4h-7.9v-21.4h23.9c9.3,0,13.5,4.2,13.5,13.5v101.5c0,2.8,1.6,4.4,4.4,4.4h7.7v21.2H916    c-9.5,0-13.5-4-13.5-13.5V295.6z"></path>        <path d="M968.6,430.7c6.9,0,13.1-4.2,16.6-12.9l3.4-7.7L955,334.3c-1.2-3-2.6-3.6-5.3-3.6h-3v-21.4h16.6c7.1,0,10.7,2.6,13.3,9.5    l19.8,50.5c2,5.1,3.6,13.5,3.6,13.5h0.4c0,0,1.6-8.3,3.4-13.5l17.2-50.5c2.4-6.9,6.5-9.5,13.5-9.5h17v21.4h-3    c-3,0-4.6,0.6-5.7,3.6l-36.2,91.2c-7.1,18.2-21.4,26.3-36.4,26.3c-15.8,0-25.5-10.3-25.5-10.3l9.7-17.8    C954.2,423.8,960.3,430.7,968.6,430.7z"></path>        <path d="M1127.2,372.7c0,0,14.4,16.6,34,16.6c10.7,0,20.2-5.7,20.2-16.6c0-23.9-66.1-22-66.1-65.7c0-22.8,19.8-39.6,46.9-39.6    c16.4,0,41.8,7.7,41.8,27.7v13.1h-23.4v-6.3c0-6.5-9.3-10.9-18.6-10.9c-11.9,0-20.6,6.1-20.6,15c0,23.9,66.1,19.2,66.1,65.3    c0,22.4-17.2,41.4-46.7,41.4c-31.1,0-48.3-21.8-48.3-21.8L1127.2,372.7z"></path>        <path d="M1232.1,335.1c0-3-1.6-4.4-4.4-4.4h-7.9v-21.4h23.9c9.3,0,13.3,4.2,13.3,13.5v61.9c0,2.8,1.6,4.4,4.4,4.4h7.9v21.2h-23.9    c-9.3,0-13.3-4-13.3-13.5V335.1z M1233.2,269.8h21.8V293h-21.8V269.8z"></path>        <path d="M1290.4,335.1c0-3-1.6-4.4-4.4-4.4h-7.9v-21.4h23.2c8.9,0,13.3,4.2,13.3,11.3v3c0,2.2-0.2,4.4-0.2,4.4h0.4    c4.7-9.9,16.8-21,32.7-21c15.2,0,25.1,7.1,29.5,20.8h0.4c5.3-10.9,18.4-20.8,34.4-20.8c21,0,33.1,11.9,33.1,38.4v39.4    c0,2.8,1.6,4.4,4.4,4.4h7.7v21.2h-23.7c-9.5,0-13.5-4-13.5-13.5v-46.7c0-11.5-2.2-20.2-13.9-20.2c-12.5,0-21.4,10.5-24.1,23.2    c-1.2,4-1.6,8.1-1.6,12.9v44.3H1355v-60.2c0-10.9-1.6-20.2-13.7-20.2c-12.7,0-21.2,10.5-24.3,23.4c-1,4-1.6,8.1-1.6,12.7v44.3    h-24.9V335.1z"></path>        <path d="M1477.1,335.1c0-3-1.6-4.4-4.4-4.4h-7.9v-21.4h22.4c9.3,0,12.7,4.2,12.7,9.7c0,2.4,0,4,0,4h0.4c0,0,8.5-16,32.1-16    c27.3,0,44.9,21.6,44.9,52.8c0,32.1-19.8,52.8-46.3,52.8c-20,0-28.9-13.3-28.9-13.3h-0.4c0,0,0.4,3.6,0.4,8.7v41.8h-24.9V335.1z     M1526.4,391.5c13.9,0,25.5-11.3,25.5-31.3c0-19.2-10.3-31.7-25.1-31.7c-13.1,0-25.3,9.5-25.3,31.9    C1501.4,376.1,1509.7,391.5,1526.4,391.5z"></path>        <path d="M1597.8,295.6c0-3-1.6-4.4-4.4-4.4h-7.9v-21.4h23.9c9.3,0,13.5,4.2,13.5,13.5v101.5c0,2.8,1.6,4.4,4.4,4.4h7.7v21.2h-23.7    c-9.5,0-13.5-4-13.5-13.5V295.6z"></path>        <path d="M1697.1,307c28.9,0,44.7,21.2,44.7,47.9c0,3-0.6,9.3-0.6,9.3h-69.7c2,17.8,15,27.1,30.3,27.1c16.2,0,28.3-11.3,28.3-11.3    l10.5,17.4c0,0-15.4,15.2-40.6,15.2c-33.4,0-54.2-24.1-54.2-52.8C1645.9,328.8,1666.9,307,1697.1,307z M1716.1,346.8    c-0.4-12.1-8.7-20.4-19-20.4c-12.9,0-22,7.7-24.7,20.4H1716.1z"></path>        <path d="M1823.2,372.7c0,0,14.4,16.6,34,16.6c10.7,0,20.2-5.7,20.2-16.6c0-23.9-66.1-22-66.1-65.7c0-22.8,19.8-39.6,46.9-39.6    c16.4,0,41.8,7.7,41.8,27.7v13.1h-23.4v-6.3c0-6.5-9.3-10.9-18.6-10.9c-11.9,0-20.6,6.1-20.6,15c0,23.9,66.1,19.2,66.1,65.3    c0,22.4-17.2,41.4-46.7,41.4c-31.1,0-48.3-21.8-48.3-21.8L1823.2,372.7z"></path>        <path d="M1931.9,372.7c0,0,14.4,16.6,34,16.6c10.7,0,20.2-5.7,20.2-16.6c0-23.9-66.1-22-66.1-65.7c0-22.8,19.8-39.6,46.9-39.6    c16.4,0,41.8,7.7,41.8,27.7v13.1h-23.4v-6.3c0-6.5-9.3-10.9-18.6-10.9c-11.9,0-20.6,6.1-20.6,15c0,23.9,66.1,19.2,66.1,65.3    c0,22.4-17.2,41.4-46.7,41.4c-31.1,0-48.3-21.8-48.3-21.8L1931.9,372.7z"></path>        <path d="M2039.1,296.2c0-2.8-1.6-4.4-4.4-4.4h-8.5v-22h25.3c9.5,0,13.5,4.2,13.5,13.5V384c0,2.8,1.6,4.4,4.4,4.4h30.7    c2.8,0,4.4-1.6,4.4-4.4v-8.5h23.6v21.4c0,9.5-4,13.5-13.5,13.5h-61.9c-9.5,0-13.5-4-13.5-13.5V296.2z"></path>	</g>        <g>		<path class="st0" d="M349.5,303.3h-38.4v-74c0-22.2-18.1-40.2-40.2-40.2s-40.2,18.1-40.2,40.2v74h-38.4v-74    c0-43.3,35.3-78.6,78.6-78.6s78.6,35.3,78.6,78.6V303.3z"></path>            <path class="st1" d="M340.2,213.4c-2.9,1.3-4.2,3.9-5.4,6.5c0.3-6.8,0.6-13.7-0.1-20.3c-0.4-3.3-0.8-6.8-3.9-8.8    c-2.3-1.5-6.4,0.2-7.5-0.5c-2.2-1.4-1.8-14.9-3.4-18.6c-3.1-6.9-13-10.4-19-14.1c-1.2-0.7-2.5-1.6-3.7-2.5    c-8.1-2.8-16.7-4.4-25.8-4.4c-2.6,0-5.2,0.1-7.8,0.4c-0.5,0.4-1,0.9-1.6,1.3c-0.8,0.5-1.3,1.1-1.9-0.2c-0.1-0.2-0.3-0.4-0.5-0.6    c-3.2,0.5-6.4,1.2-9.5,2.1c-5.2,2.8-9.9,6.4-15.2,9.4c-6,3.3-10,8.1-14.5,13.6c-13.6,16.7-21.3,36.2-27.5,56.7    c-0.1,0.2-0.1,0.4-0.1,0.6v0.7c0.4,2.3,3.7,3.3,5.4,1.6c1.5,4.8-0.2,11.1-0.1,15.9c0.2,4.3,1,8.4,2,12.5c0.6,2.6,5.8,3.4,7.1,1.1    c3.6-4.2,1-4.9,3.2,0.2c0.4,3.1,6.8,3.5,7.3,0.6c2.3-4,2.5-3.6,4.3,0.2c0.8,2.1,5.7,1.7,6.6-0.3c1.2-2.7,2-5.3,2.5-8v-29.1    c0-18.9,13.2-34.8,30.8-39.1c1.1-6,4-16.7,6.3-18.6c1.8,3.6-1.4,11.1-1.1,17.6c1.4-0.1,2.8-0.2,4.2-0.2c1.6,0,3.1,0.1,4.6,0.3    c1.3-4.2,1.5-8.9,3.1-9.1c1.8,1.8,0.3,6.8,0.4,9.6c11.9,2.4,21.9,10.1,27.4,20.5c0.1-0.2,0.1-0.4,0.1-0.5c0.4-2.6,1.1-17.5,2.5-18    c2.6-0.6,1.5,15.2,0.1,23.1c-0.1,0.4-0.1,0.8-0.2,1.3c1.4,4.1,2.2,8.5,2.2,13.1v7.1c1.1,1.5,2.5,2.5,4.9,2.8    c0.7,0.8,2.9-0.9,3.6,0.2c1.7,3.7,0.9,4.9,1.8,9.5c0.8,5.8,0.6,10.1-0.1,15.3c-0.3,1.9,0.8,4,3,4c5-0.2,10.3-8.6,13.3-12.4    c0,2-1.9,9.2-1.9,11.1c0,3.6,8.2,3.4,9.5,0.2c7.2-18.5,1.5-42.5-0.8-50.8C344.2,213.8,342.3,212.4,340.2,213.4z"></path>            <rect x="165" y="427.1" class="st0" width="211.9" height="16.5"></rect>            <path class="st2" d="M376.9,419.5H165V268.6c0-6.4,5.2-11.7,11.7-11.7h188.6c6.4,0,11.7,5.2,11.7,11.7V419.5z"></path>            <path class="st3" d="M372.5,308.6c-10.2,11.1-22.8,27-31.2,39.3c8-17.9,16.1-35.7,24.7-53.3c2.9-6.1-5-10.6-8.9-5.2    c-9.1,12.5-18.1,25.2-26.9,37.9c11.4-21.5,22.7-43.7,38.6-61.9c-2.5-2.5-5.5-4.6-8.8-6.1c-10.5,10.4-20.4,21.4-29.7,32.8    c1.7-8.3,8.6-20.2,10.8-27.7c0.8-2.7-0.2-5.9-2.2-7.5H333c-1.1,0.7-2.3,1.8-3.6,3.4c-7.1,9.3-19.5,24-31.1,38.3    c9-17.7,17.2-33.2,22.1-41.7h-15.5c-15.2,15.8-39,40.3-54.6,56.7l-4.9,2.8c11.4-16.4,31.8-45.3,39.3-53c2-2.1,1.8-4.7,0.5-6.5    h-8.5c-9.8,10.3-26.7,32.6-38.9,49.5c7.6-13.6,14.8-27.1,21.6-41.6c2.4-5.1-3.8-10.7-8.1-6.3c-13.7,13.8-26.6,28.4-38.7,43.5    c5.4-10.4,14.6-26.1,20-36.4c2.6-5-4.1-10.9-8.1-6.3c-8.9,10.3-21.3,26.2-29.9,36.7c5.3-9.4,12.4-21.5,17.6-31    c2.8-5.1-3.9-10.5-8.1-6.3c-6.6,6.6-14.9,16-21.3,22.8c2.4-4.6,6.8-12.1,9.2-16.8c1.6-3.1-0.1-6.5-2.9-7.5    c-2.1,0.3-4.1,0.9-6.1,1.7c-3.4,2.4-7.7,6.3-10.5,8.2c0.4-0.7,0.9-1.3,1.3-2c0.1-0.2,0.2-0.3,0.3-0.5c-5.5,5.2-8.9,12.5-8.9,20.6    v0.2c2.1-1.8,4.3-3.5,6.5-5.2c-2.1,4-4.3,8-6.5,12v23.8c5.4-6.1,10.9-12.2,16.5-18.2c-5.5,9.7-11,19.4-16.5,29v23.6    c10.5-14,21.2-27.8,32.1-41.4c-10.7,20.5-21.4,41-32.1,61.5v22.5c18-32.9,43.5-66.1,67-94.4c-3.6,11.5-14,25.1-20.7,35.9    c-10.8,17.5-18.8,34.7-26.9,50.7c-4.9,9-13,23.5-17.6,34.1h12.5c5.5-9.7,11-20.6,16.5-28.6c5.8-8.6,11.4-17.5,17-26.3    c-4.8,11.8-10.4,24.4-19.4,38.1c-3.6,5.6,3.5,12.8,7.3,7.3c16.4-23.9,29.9-41.2,43.5-60.2c1.2-2.8,30.2-40.4,39.3-52.9    c0,0,0,0,0,0c0.5,0.3,1.1,0.7,1.6,1c0.9,0.6-43.5,81.2-47.4,91.8c-4.9,7.8-10.3,15.8-14.9,22.6c-1.7,2.4-3.3,4.7-5,7.1h12.6    c0.4-0.6,0.9-1.3,1.3-1.9c7-9.9,13-20,18.8-28.3c1.6-1.4,2.8-2.2,3-1.7c3-5.7,9.7-19.3,17.9-35.7l-5.2,35.5c-4.7,8-9.4,16-14,24    c-3.4,5.8,5.3,10.7,8.9,5.2c9.5-14.1,17.9-28.9,25.9-43.8c11.6-19,23.7-37.7,36.9-55.5c-1.9,3.6-3.9,7.2-5.9,10.8    c-15,27.1-30.4,54.1-43.1,82.4c-2.7,6,5.3,11,8.9,5.2c15.8-25.1,32.2-49.8,49-74.2c-11.5,25.9-22.6,51.9-33.6,78H312    c11.6-22.7,23.7-45.1,38.1-66c-10.1,22-20.1,44-30.2,66h11.8c3.6-6.8,7.5-13.5,11.6-20c-2.5,5.9-5.8,13.8-8.4,20H347    c2.4-3.8,4.9-7.9,7.1-11c-0.5,2.4-1.6,7.3-2.5,11h12.8c1.3-2.3,2.6-4.5,3.7-5.9c0.3,1.3,0.6,2.5,1.1,3.7c0.4,0.9,0.7,1.6,0.9,2.2    h6.7v-20.1c-1.2-3.3-5.8-5.4-8.5-2.2c-0.5,0.6-1.1,1.3-1.6,1.9c1.1-4.6,2.3-9.1,4.1-13.2c1.8-4.3-2.5-6.9-6.1-6    c-0.7,0.1-1.3,0.3-1.9,0.7c3.7-8,9.3-18.3,14.1-27.1v-13.1c-2-0.5-4.2,0-5.8,2.1c-3,4-8.9,11.7-11.9,15.8    c4.9-10.6,12-23.9,17.7-35.5V307C375.5,306.7,373.9,307.1,372.5,308.6z"></path>            <path d="M325.2,289.7c-6.6-6.6-17.4-6.6-24,0l-46.1,44.8L240.7,320c-6.6-6.6-17.4-6.6-24,0l-5.5,5.5c-6.6,6.6-6.6,17.4,0,24    l24.8,24.8c0.4,0.6,0.9,1.1,1.4,1.7l5.5,5.5l12.3,11.7l10.3-10.3c0.6-0.4,1.1-0.9,1.7-1.4l5.5-5.5c0.5-0.5,1-1.1,1.4-1.7    l56.5-55.2c6.6-6.6,6.6-17.4,0-24L325.2,289.7z"></path>	</g></g>    <g id="zwart" class="st4">	<g class="st5">		<rect x="164.7" y="427.4" width="212.5" height="16.5"></rect>        <path d="M363.2,256.8h-13.5v-27.7c0-43.5-35.4-78.8-78.8-78.8s-78.8,35.4-78.8,78.8v27.7h-13.5c-7.7,0-13.9,6.2-13.9,13.9v149    h212.5v-149C377.2,263.1,370.9,256.8,363.2,256.8z M230.6,229.2c0-22.2,18.1-40.3,40.3-40.3s40.3,18.1,40.3,40.3v27.7h-80.7V229.2    z M330.8,319.2l-56.6,55.3c-0.4,0.6-0.9,1.1-1.4,1.7l-5.5,5.5c-0.5,0.5-1.1,1-1.7,1.4l-10.3,10.3l-12.3-11.8l-5.5-5.5    c-0.5-0.5-1-1.1-1.4-1.7l-24.9-24.9c-6.6-6.6-6.6-17.4,0-24l5.5-5.5c6.6-6.6,17.4-6.6,24,0l14.4,14.4l46.2-44.9    c6.6-6.6,17.4-6.6,24,0l5.5,5.5C337.4,301.8,337.4,312.6,330.8,319.2z"></path>	</g>        <g class="st5">		<path d="M503.9,291.8h-12.9v-22H554c25.7,0,43.7,15.8,43.7,42.4c0,25.3-17.4,35.8-23.4,37v0.4c0,0,4.4,2,6.9,7.1l13.7,27.1    c2.2,4.2,5.5,4.6,9.9,4.6h2.6v22h-13.7c-10.5,0-15-1.6-19.6-10.5l-18-35.4c-3-5.5-5.9-6.5-13.3-6.5h-13.1v52.4h-25.9V291.8z     M550.5,335.7c13.1,0,20.8-8.1,20.8-22.2c0-13.9-7.7-21.8-20.4-21.8h-21v43.9H550.5z"></path>            <path d="M665.6,307c28.9,0,44.7,21.2,44.7,47.9c0,3-0.6,9.3-0.6,9.3h-69.7c2,17.8,15,27.1,30.3,27.1c16.2,0,28.3-11.3,28.3-11.3    l10.5,17.4c0,0-15.4,15.2-40.6,15.2c-33.4,0-54.2-24.1-54.2-52.8C614.4,328.8,635.4,307,665.6,307z M684.6,346.8    c-0.4-12.1-8.7-20.4-19-20.4c-12.9,0-22,7.7-24.7,20.4H684.6z"></path>            <path d="M784.8,347h3.2v-0.8c0-14.4-5.7-19.8-18.6-19.8c-4.6,0-13.5,1.2-13.5,6.7v5.3h-23.4v-10.7c0-18.8,26.5-20.8,37-20.8    c33.6,0,43.5,17.6,43.5,40.2v37.6c0,2.8,1.6,4.4,4.4,4.4h7.9v21.2h-22.6c-9.3,0-12.9-5.1-12.9-11.1c0-2.6,0.2-4.4,0.2-4.4h-0.4    c0,0-7.7,17.8-30.5,17.8c-18,0-34.4-11.3-34.4-31.5C724.8,349.6,768.4,347,784.8,347z M765.4,393.1c13.5,0,23-14.2,23-26.5v-2.4    H784c-13.1,0-33.8,1.8-33.8,15.8C750.1,386.8,755.1,393.1,765.4,393.1z"></path>            <path d="M844.9,295.6c0-3-1.6-4.4-4.4-4.4h-7.9v-21.4h23.9c9.3,0,13.5,4.2,13.5,13.5v101.5c0,2.8,1.6,4.4,4.4,4.4h7.7v21.2h-23.7    c-9.5,0-13.5-4-13.5-13.5V295.6z"></path>            <path d="M902.5,295.6c0-3-1.6-4.4-4.4-4.4h-7.9v-21.4h23.9c9.3,0,13.5,4.2,13.5,13.5v101.5c0,2.8,1.6,4.4,4.4,4.4h7.7v21.2H916    c-9.5,0-13.5-4-13.5-13.5V295.6z"></path>            <path d="M968.6,430.7c6.9,0,13.1-4.2,16.6-12.9l3.4-7.7L955,334.3c-1.2-3-2.6-3.6-5.3-3.6h-3v-21.4h16.6c7.1,0,10.7,2.6,13.3,9.5    l19.8,50.5c2,5.1,3.6,13.5,3.6,13.5h0.4c0,0,1.6-8.3,3.4-13.5l17.2-50.5c2.4-6.9,6.5-9.5,13.5-9.5h17v21.4h-3    c-3,0-4.6,0.6-5.7,3.6l-36.2,91.2c-7.1,18.2-21.4,26.3-36.4,26.3c-15.8,0-25.5-10.3-25.5-10.3l9.7-17.8    C954.2,423.8,960.3,430.7,968.6,430.7z"></path>            <path d="M1127.2,372.7c0,0,14.4,16.6,34,16.6c10.7,0,20.2-5.7,20.2-16.6c0-23.9-66.1-22-66.1-65.7c0-22.8,19.8-39.6,46.9-39.6    c16.4,0,41.8,7.7,41.8,27.7v13.1h-23.4v-6.3c0-6.5-9.3-10.9-18.6-10.9c-11.9,0-20.6,6.1-20.6,15c0,23.9,66.1,19.2,66.1,65.3    c0,22.4-17.2,41.4-46.7,41.4c-31.1,0-48.3-21.8-48.3-21.8L1127.2,372.7z"></path>            <path d="M1232.1,335.1c0-3-1.6-4.4-4.4-4.4h-7.9v-21.4h23.9c9.3,0,13.3,4.2,13.3,13.5v61.9c0,2.8,1.6,4.4,4.4,4.4h7.9v21.2h-23.9    c-9.3,0-13.3-4-13.3-13.5V335.1z M1233.2,269.8h21.8V293h-21.8V269.8z"></path>            <path d="M1290.4,335.1c0-3-1.6-4.4-4.4-4.4h-7.9v-21.4h23.2c8.9,0,13.3,4.2,13.3,11.3v3c0,2.2-0.2,4.4-0.2,4.4h0.4    c4.7-9.9,16.8-21,32.7-21c15.2,0,25.1,7.1,29.5,20.8h0.4c5.3-10.9,18.4-20.8,34.4-20.8c21,0,33.1,11.9,33.1,38.4v39.4    c0,2.8,1.6,4.4,4.4,4.4h7.7v21.2h-23.7c-9.5,0-13.5-4-13.5-13.5v-46.7c0-11.5-2.2-20.2-13.9-20.2c-12.5,0-21.4,10.5-24.1,23.2    c-1.2,4-1.6,8.1-1.6,12.9v44.3H1355v-60.2c0-10.9-1.6-20.2-13.7-20.2c-12.7,0-21.2,10.5-24.3,23.4c-1,4-1.6,8.1-1.6,12.7v44.3    h-24.9V335.1z"></path>            <path d="M1477.1,335.1c0-3-1.6-4.4-4.4-4.4h-7.9v-21.4h22.4c9.3,0,12.7,4.2,12.7,9.7c0,2.4,0,4,0,4h0.4c0,0,8.5-16,32.1-16    c27.3,0,44.9,21.6,44.9,52.8c0,32.1-19.8,52.8-46.3,52.8c-20,0-28.9-13.3-28.9-13.3h-0.4c0,0,0.4,3.6,0.4,8.7v41.8h-24.9V335.1z     M1526.4,391.5c13.9,0,25.5-11.3,25.5-31.3c0-19.2-10.3-31.7-25.1-31.7c-13.1,0-25.3,9.5-25.3,31.9    C1501.4,376.1,1509.7,391.5,1526.4,391.5z"></path>            <path d="M1597.8,295.6c0-3-1.6-4.4-4.4-4.4h-7.9v-21.4h23.9c9.3,0,13.5,4.2,13.5,13.5v101.5c0,2.8,1.6,4.4,4.4,4.4h7.7v21.2h-23.7    c-9.5,0-13.5-4-13.5-13.5V295.6z"></path>            <path d="M1697.1,307c28.9,0,44.7,21.2,44.7,47.9c0,3-0.6,9.3-0.6,9.3h-69.7c2,17.8,15,27.1,30.3,27.1c16.2,0,28.3-11.3,28.3-11.3    l10.5,17.4c0,0-15.4,15.2-40.6,15.2c-33.4,0-54.2-24.1-54.2-52.8C1645.9,328.8,1666.9,307,1697.1,307z M1716.1,346.8    c-0.4-12.1-8.7-20.4-19-20.4c-12.9,0-22,7.7-24.7,20.4H1716.1z"></path>            <path d="M1823.2,372.7c0,0,14.4,16.6,34,16.6c10.7,0,20.2-5.7,20.2-16.6c0-23.9-66.1-22-66.1-65.7c0-22.8,19.8-39.6,46.9-39.6    c16.4,0,41.8,7.7,41.8,27.7v13.1h-23.4v-6.3c0-6.5-9.3-10.9-18.6-10.9c-11.9,0-20.6,6.1-20.6,15c0,23.9,66.1,19.2,66.1,65.3    c0,22.4-17.2,41.4-46.7,41.4c-31.1,0-48.3-21.8-48.3-21.8L1823.2,372.7z"></path>            <path d="M1931.9,372.7c0,0,14.4,16.6,34,16.6c10.7,0,20.2-5.7,20.2-16.6c0-23.9-66.1-22-66.1-65.7c0-22.8,19.8-39.6,46.9-39.6    c16.4,0,41.8,7.7,41.8,27.7v13.1h-23.4v-6.3c0-6.5-9.3-10.9-18.6-10.9c-11.9,0-20.6,6.1-20.6,15c0,23.9,66.1,19.2,66.1,65.3    c0,22.4-17.2,41.4-46.7,41.4c-31.1,0-48.3-21.8-48.3-21.8L1931.9,372.7z"></path>            <path d="M2039.1,296.2c0-2.8-1.6-4.4-4.4-4.4h-8.5v-22h25.3c9.5,0,13.5,4.2,13.5,13.5V384c0,2.8,1.6,4.4,4.4,4.4h30.7    c2.8,0,4.4-1.6,4.4-4.4v-8.5h23.6v21.4c0,9.5-4,13.5-13.5,13.5h-61.9c-9.5,0-13.5-4-13.5-13.5V296.2z"></path>	</g></g>    <g id="geel" class="st4">	<g class="st5">		<g>			<g>				<rect x="164.7" y="427.4" class="st2" width="212.5" height="16.5"></rect>			</g>            <g>				<g>					<path class="st2" d="M363.2,256.8h-13.5v-27.7c0-43.5-35.4-78.8-78.8-78.8s-78.8,35.4-78.8,78.8v27.7h-13.5       c-7.7,0-13.9,6.2-13.9,13.9v149h212.5v-149C377.2,263.1,370.9,256.8,363.2,256.8z M230.6,229.2c0-22.2,18.1-40.3,40.3-40.3       s40.3,18.1,40.3,40.3v27.7h-80.7V229.2z M330.8,319.2l-56.6,55.3c-0.4,0.6-0.9,1.1-1.4,1.7l-5.5,5.5c-0.5,0.5-1.1,1-1.7,1.4       l-10.3,10.3l-12.3-11.8l-5.5-5.5c-0.5-0.5-1-1.1-1.4-1.7l-24.9-24.9c-6.6-6.6-6.6-17.4,0-24l5.5-5.5c6.6-6.6,17.4-6.6,24,0       l14.4,14.4l46.2-44.9c6.6-6.6,17.4-6.6,24,0l5.5,5.5C337.4,301.8,337.4,312.6,330.8,319.2z"></path>				</g>			</g>		</g>	</g>        <g class="st5">		<g>			<path class="st2" d="M503.9,291.8h-12.9v-22H554c25.7,0,43.7,15.8,43.7,42.4c0,25.3-17.4,35.8-23.4,37v0.4c0,0,4.4,2,6.9,7.1     l13.7,27.1c2.2,4.2,5.5,4.6,9.9,4.6h2.6v22h-13.7c-10.5,0-15-1.6-19.6-10.5l-18-35.4c-3-5.5-5.9-6.5-13.3-6.5h-13.1v52.4h-25.9     V291.8z M550.5,335.7c13.1,0,20.8-8.1,20.8-22.2c0-13.9-7.7-21.8-20.4-21.8h-21v43.9H550.5z"></path>            <path class="st2" d="M665.6,307c28.9,0,44.7,21.2,44.7,47.9c0,3-0.6,9.3-0.6,9.3h-69.7c2,17.8,15,27.1,30.3,27.1     c16.2,0,28.3-11.3,28.3-11.3l10.5,17.4c0,0-15.4,15.2-40.6,15.2c-33.4,0-54.2-24.1-54.2-52.8C614.4,328.8,635.4,307,665.6,307z      M684.6,346.8c-0.4-12.1-8.7-20.4-19-20.4c-12.9,0-22,7.7-24.7,20.4H684.6z"></path>            <path class="st2" d="M784.8,347h3.2v-0.8c0-14.4-5.7-19.8-18.6-19.8c-4.6,0-13.5,1.2-13.5,6.7v5.3h-23.4v-10.7     c0-18.8,26.5-20.8,37-20.8c33.6,0,43.5,17.6,43.5,40.2v37.6c0,2.8,1.6,4.4,4.4,4.4h7.9v21.2h-22.6c-9.3,0-12.9-5.1-12.9-11.1     c0-2.6,0.2-4.4,0.2-4.4h-0.4c0,0-7.7,17.8-30.5,17.8c-18,0-34.4-11.3-34.4-31.5C724.8,349.6,768.4,347,784.8,347z M765.4,393.1     c13.5,0,23-14.2,23-26.5v-2.4H784c-13.1,0-33.8,1.8-33.8,15.8C750.1,386.8,755.1,393.1,765.4,393.1z"></path>            <path class="st2" d="M844.9,295.6c0-3-1.6-4.4-4.4-4.4h-7.9v-21.4h23.9c9.3,0,13.5,4.2,13.5,13.5v101.5c0,2.8,1.6,4.4,4.4,4.4     h7.7v21.2h-23.7c-9.5,0-13.5-4-13.5-13.5V295.6z"></path>            <path class="st2" d="M902.5,295.6c0-3-1.6-4.4-4.4-4.4h-7.9v-21.4h23.9c9.3,0,13.5,4.2,13.5,13.5v101.5c0,2.8,1.6,4.4,4.4,4.4     h7.7v21.2H916c-9.5,0-13.5-4-13.5-13.5V295.6z"></path>            <path class="st2" d="M968.6,430.7c6.9,0,13.1-4.2,16.6-12.9l3.4-7.7L955,334.3c-1.2-3-2.6-3.6-5.3-3.6h-3v-21.4h16.6     c7.1,0,10.7,2.6,13.3,9.5l19.8,50.5c2,5.1,3.6,13.5,3.6,13.5h0.4c0,0,1.6-8.3,3.4-13.5l17.2-50.5c2.4-6.9,6.5-9.5,13.5-9.5h17     v21.4h-3c-3,0-4.6,0.6-5.7,3.6l-36.2,91.2c-7.1,18.2-21.4,26.3-36.4,26.3c-15.8,0-25.5-10.3-25.5-10.3l9.7-17.8     C954.2,423.8,960.3,430.7,968.6,430.7z"></path>            <path class="st2" d="M1127.2,372.7c0,0,14.4,16.6,34,16.6c10.7,0,20.2-5.7,20.2-16.6c0-23.9-66.1-22-66.1-65.7     c0-22.8,19.8-39.6,46.9-39.6c16.4,0,41.8,7.7,41.8,27.7v13.1h-23.4v-6.3c0-6.5-9.3-10.9-18.6-10.9c-11.9,0-20.6,6.1-20.6,15     c0,23.9,66.1,19.2,66.1,65.3c0,22.4-17.2,41.4-46.7,41.4c-31.1,0-48.3-21.8-48.3-21.8L1127.2,372.7z"></path>            <path class="st2" d="M1232.1,335.1c0-3-1.6-4.4-4.4-4.4h-7.9v-21.4h23.9c9.3,0,13.3,4.2,13.3,13.5v61.9c0,2.8,1.6,4.4,4.4,4.4     h7.9v21.2h-23.9c-9.3,0-13.3-4-13.3-13.5V335.1z M1233.2,269.8h21.8V293h-21.8V269.8z"></path>            <path class="st2" d="M1290.4,335.1c0-3-1.6-4.4-4.4-4.4h-7.9v-21.4h23.2c8.9,0,13.3,4.2,13.3,11.3v3c0,2.2-0.2,4.4-0.2,4.4h0.4     c4.7-9.9,16.8-21,32.7-21c15.2,0,25.1,7.1,29.5,20.8h0.4c5.3-10.9,18.4-20.8,34.4-20.8c21,0,33.1,11.9,33.1,38.4v39.4     c0,2.8,1.6,4.4,4.4,4.4h7.7v21.2h-23.7c-9.5,0-13.5-4-13.5-13.5v-46.7c0-11.5-2.2-20.2-13.9-20.2c-12.5,0-21.4,10.5-24.1,23.2     c-1.2,4-1.6,8.1-1.6,12.9v44.3H1355v-60.2c0-10.9-1.6-20.2-13.7-20.2c-12.7,0-21.2,10.5-24.3,23.4c-1,4-1.6,8.1-1.6,12.7v44.3     h-24.9V335.1z"></path>            <path class="st2" d="M1477.1,335.1c0-3-1.6-4.4-4.4-4.4h-7.9v-21.4h22.4c9.3,0,12.7,4.2,12.7,9.7c0,2.4,0,4,0,4h0.4     c0,0,8.5-16,32.1-16c27.3,0,44.9,21.6,44.9,52.8c0,32.1-19.8,52.8-46.3,52.8c-20,0-28.9-13.3-28.9-13.3h-0.4c0,0,0.4,3.6,0.4,8.7     v41.8h-24.9V335.1z M1526.4,391.5c13.9,0,25.5-11.3,25.5-31.3c0-19.2-10.3-31.7-25.1-31.7c-13.1,0-25.3,9.5-25.3,31.9     C1501.4,376.1,1509.7,391.5,1526.4,391.5z"></path>            <path class="st2" d="M1597.8,295.6c0-3-1.6-4.4-4.4-4.4h-7.9v-21.4h23.9c9.3,0,13.5,4.2,13.5,13.5v101.5c0,2.8,1.6,4.4,4.4,4.4     h7.7v21.2h-23.7c-9.5,0-13.5-4-13.5-13.5V295.6z"></path>            <path class="st2" d="M1697.1,307c28.9,0,44.7,21.2,44.7,47.9c0,3-0.6,9.3-0.6,9.3h-69.7c2,17.8,15,27.1,30.3,27.1     c16.2,0,28.3-11.3,28.3-11.3l10.5,17.4c0,0-15.4,15.2-40.6,15.2c-33.4,0-54.2-24.1-54.2-52.8C1645.9,328.8,1666.9,307,1697.1,307     z M1716.1,346.8c-0.4-12.1-8.7-20.4-19-20.4c-12.9,0-22,7.7-24.7,20.4H1716.1z"></path>            <path class="st2" d="M1823.2,372.7c0,0,14.4,16.6,34,16.6c10.7,0,20.2-5.7,20.2-16.6c0-23.9-66.1-22-66.1-65.7     c0-22.8,19.8-39.6,46.9-39.6c16.4,0,41.8,7.7,41.8,27.7v13.1h-23.4v-6.3c0-6.5-9.3-10.9-18.6-10.9c-11.9,0-20.6,6.1-20.6,15     c0,23.9,66.1,19.2,66.1,65.3c0,22.4-17.2,41.4-46.7,41.4c-31.1,0-48.3-21.8-48.3-21.8L1823.2,372.7z"></path>            <path class="st2" d="M1931.9,372.7c0,0,14.4,16.6,34,16.6c10.7,0,20.2-5.7,20.2-16.6c0-23.9-66.1-22-66.1-65.7     c0-22.8,19.8-39.6,46.9-39.6c16.4,0,41.8,7.7,41.8,27.7v13.1h-23.4v-6.3c0-6.5-9.3-10.9-18.6-10.9c-11.9,0-20.6,6.1-20.6,15     c0,23.9,66.1,19.2,66.1,65.3c0,22.4-17.2,41.4-46.7,41.4c-31.1,0-48.3-21.8-48.3-21.8L1931.9,372.7z"></path>            <path class="st2" d="M2039.1,296.2c0-2.8-1.6-4.4-4.4-4.4h-8.5v-22h25.3c9.5,0,13.5,4.2,13.5,13.5V384c0,2.8,1.6,4.4,4.4,4.4     h30.7c2.8,0,4.4-1.6,4.4-4.4v-8.5h23.6v21.4c0,9.5-4,13.5-13.5,13.5h-61.9c-9.5,0-13.5-4-13.5-13.5V296.2z"></path>		</g>	</g></g>    <g id="wit" class="st4">	<g class="st5">		<g>			<g>				<rect x="164.7" y="427.4" class="st6" width="212.5" height="16.5"></rect>			</g>            <g>				<g>					<path class="st6" d="M363.2,256.8h-13.5v-27.7c0-43.5-35.4-78.8-78.8-78.8s-78.8,35.4-78.8,78.8v27.7h-13.5       c-7.7,0-13.9,6.2-13.9,13.9v149h212.5v-149C377.2,263.1,370.9,256.8,363.2,256.8z M230.6,229.2c0-22.2,18.1-40.3,40.3-40.3       s40.3,18.1,40.3,40.3v27.7h-80.7V229.2z M330.8,319.2l-56.6,55.3c-0.4,0.6-0.9,1.1-1.4,1.7l-5.5,5.5c-0.5,0.5-1.1,1-1.7,1.4       l-10.3,10.3l-12.3-11.8l-5.5-5.5c-0.5-0.5-1-1.1-1.4-1.7l-24.9-24.9c-6.6-6.6-6.6-17.4,0-24l5.5-5.5c6.6-6.6,17.4-6.6,24,0       l14.4,14.4l46.2-44.9c6.6-6.6,17.4-6.6,24,0l5.5,5.5C337.4,301.8,337.4,312.6,330.8,319.2z"></path>				</g>			</g>		</g>	</g>        <g class="st5">		<g>			<path class="st6" d="M503.9,291.8h-12.9v-22H554c25.7,0,43.7,15.8,43.7,42.4c0,25.3-17.4,35.8-23.4,37v0.4c0,0,4.4,2,6.9,7.1     l13.7,27.1c2.2,4.2,5.5,4.6,9.9,4.6h2.6v22h-13.7c-10.5,0-15-1.6-19.6-10.5l-18-35.4c-3-5.5-5.9-6.5-13.3-6.5h-13.1v52.4h-25.9     V291.8z M550.5,335.7c13.1,0,20.8-8.1,20.8-22.2c0-13.9-7.7-21.8-20.4-21.8h-21v43.9H550.5z"></path>            <path class="st6" d="M665.6,307c28.9,0,44.7,21.2,44.7,47.9c0,3-0.6,9.3-0.6,9.3h-69.7c2,17.8,15,27.1,30.3,27.1     c16.2,0,28.3-11.3,28.3-11.3l10.5,17.4c0,0-15.4,15.2-40.6,15.2c-33.4,0-54.2-24.1-54.2-52.8C614.4,328.8,635.4,307,665.6,307z      M684.6,346.8c-0.4-12.1-8.7-20.4-19-20.4c-12.9,0-22,7.7-24.7,20.4H684.6z"></path>            <path class="st6" d="M784.8,347h3.2v-0.8c0-14.4-5.7-19.8-18.6-19.8c-4.6,0-13.5,1.2-13.5,6.7v5.3h-23.4v-10.7     c0-18.8,26.5-20.8,37-20.8c33.6,0,43.5,17.6,43.5,40.2v37.6c0,2.8,1.6,4.4,4.4,4.4h7.9v21.2h-22.6c-9.3,0-12.9-5.1-12.9-11.1     c0-2.6,0.2-4.4,0.2-4.4h-0.4c0,0-7.7,17.8-30.5,17.8c-18,0-34.4-11.3-34.4-31.5C724.8,349.6,768.4,347,784.8,347z M765.4,393.1     c13.5,0,23-14.2,23-26.5v-2.4H784c-13.1,0-33.8,1.8-33.8,15.8C750.1,386.8,755.1,393.1,765.4,393.1z"></path>            <path class="st6" d="M844.9,295.6c0-3-1.6-4.4-4.4-4.4h-7.9v-21.4h23.9c9.3,0,13.5,4.2,13.5,13.5v101.5c0,2.8,1.6,4.4,4.4,4.4     h7.7v21.2h-23.7c-9.5,0-13.5-4-13.5-13.5V295.6z"></path>            <path class="st6" d="M902.5,295.6c0-3-1.6-4.4-4.4-4.4h-7.9v-21.4h23.9c9.3,0,13.5,4.2,13.5,13.5v101.5c0,2.8,1.6,4.4,4.4,4.4     h7.7v21.2H916c-9.5,0-13.5-4-13.5-13.5V295.6z"></path>            <path class="st6" d="M968.6,430.7c6.9,0,13.1-4.2,16.6-12.9l3.4-7.7L955,334.3c-1.2-3-2.6-3.6-5.3-3.6h-3v-21.4h16.6     c7.1,0,10.7,2.6,13.3,9.5l19.8,50.5c2,5.1,3.6,13.5,3.6,13.5h0.4c0,0,1.6-8.3,3.4-13.5l17.2-50.5c2.4-6.9,6.5-9.5,13.5-9.5h17     v21.4h-3c-3,0-4.6,0.6-5.7,3.6l-36.2,91.2c-7.1,18.2-21.4,26.3-36.4,26.3c-15.8,0-25.5-10.3-25.5-10.3l9.7-17.8     C954.2,423.8,960.3,430.7,968.6,430.7z"></path>            <path class="st6" d="M1127.2,372.7c0,0,14.4,16.6,34,16.6c10.7,0,20.2-5.7,20.2-16.6c0-23.9-66.1-22-66.1-65.7     c0-22.8,19.8-39.6,46.9-39.6c16.4,0,41.8,7.7,41.8,27.7v13.1h-23.4v-6.3c0-6.5-9.3-10.9-18.6-10.9c-11.9,0-20.6,6.1-20.6,15     c0,23.9,66.1,19.2,66.1,65.3c0,22.4-17.2,41.4-46.7,41.4c-31.1,0-48.3-21.8-48.3-21.8L1127.2,372.7z"></path>            <path class="st6" d="M1232.1,335.1c0-3-1.6-4.4-4.4-4.4h-7.9v-21.4h23.9c9.3,0,13.3,4.2,13.3,13.5v61.9c0,2.8,1.6,4.4,4.4,4.4     h7.9v21.2h-23.9c-9.3,0-13.3-4-13.3-13.5V335.1z M1233.2,269.8h21.8V293h-21.8V269.8z"></path>            <path class="st6" d="M1290.4,335.1c0-3-1.6-4.4-4.4-4.4h-7.9v-21.4h23.2c8.9,0,13.3,4.2,13.3,11.3v3c0,2.2-0.2,4.4-0.2,4.4h0.4     c4.7-9.9,16.8-21,32.7-21c15.2,0,25.1,7.1,29.5,20.8h0.4c5.3-10.9,18.4-20.8,34.4-20.8c21,0,33.1,11.9,33.1,38.4v39.4     c0,2.8,1.6,4.4,4.4,4.4h7.7v21.2h-23.7c-9.5,0-13.5-4-13.5-13.5v-46.7c0-11.5-2.2-20.2-13.9-20.2c-12.5,0-21.4,10.5-24.1,23.2     c-1.2,4-1.6,8.1-1.6,12.9v44.3H1355v-60.2c0-10.9-1.6-20.2-13.7-20.2c-12.7,0-21.2,10.5-24.3,23.4c-1,4-1.6,8.1-1.6,12.7v44.3     h-24.9V335.1z"></path>            <path class="st6" d="M1477.1,335.1c0-3-1.6-4.4-4.4-4.4h-7.9v-21.4h22.4c9.3,0,12.7,4.2,12.7,9.7c0,2.4,0,4,0,4h0.4     c0,0,8.5-16,32.1-16c27.3,0,44.9,21.6,44.9,52.8c0,32.1-19.8,52.8-46.3,52.8c-20,0-28.9-13.3-28.9-13.3h-0.4c0,0,0.4,3.6,0.4,8.7     v41.8h-24.9V335.1z M1526.4,391.5c13.9,0,25.5-11.3,25.5-31.3c0-19.2-10.3-31.7-25.1-31.7c-13.1,0-25.3,9.5-25.3,31.9     C1501.4,376.1,1509.7,391.5,1526.4,391.5z"></path>            <path class="st6" d="M1597.8,295.6c0-3-1.6-4.4-4.4-4.4h-7.9v-21.4h23.9c9.3,0,13.5,4.2,13.5,13.5v101.5c0,2.8,1.6,4.4,4.4,4.4     h7.7v21.2h-23.7c-9.5,0-13.5-4-13.5-13.5V295.6z"></path>            <path class="st6" d="M1697.1,307c28.9,0,44.7,21.2,44.7,47.9c0,3-0.6,9.3-0.6,9.3h-69.7c2,17.8,15,27.1,30.3,27.1     c16.2,0,28.3-11.3,28.3-11.3l10.5,17.4c0,0-15.4,15.2-40.6,15.2c-33.4,0-54.2-24.1-54.2-52.8C1645.9,328.8,1666.9,307,1697.1,307     z M1716.1,346.8c-0.4-12.1-8.7-20.4-19-20.4c-12.9,0-22,7.7-24.7,20.4H1716.1z"></path>            <path class="st6" d="M1823.2,372.7c0,0,14.4,16.6,34,16.6c10.7,0,20.2-5.7,20.2-16.6c0-23.9-66.1-22-66.1-65.7     c0-22.8,19.8-39.6,46.9-39.6c16.4,0,41.8,7.7,41.8,27.7v13.1h-23.4v-6.3c0-6.5-9.3-10.9-18.6-10.9c-11.9,0-20.6,6.1-20.6,15     c0,23.9,66.1,19.2,66.1,65.3c0,22.4-17.2,41.4-46.7,41.4c-31.1,0-48.3-21.8-48.3-21.8L1823.2,372.7z"></path>            <path class="st6" d="M1931.9,372.7c0,0,14.4,16.6,34,16.6c10.7,0,20.2-5.7,20.2-16.6c0-23.9-66.1-22-66.1-65.7     c0-22.8,19.8-39.6,46.9-39.6c16.4,0,41.8,7.7,41.8,27.7v13.1h-23.4v-6.3c0-6.5-9.3-10.9-18.6-10.9c-11.9,0-20.6,6.1-20.6,15     c0,23.9,66.1,19.2,66.1,65.3c0,22.4-17.2,41.4-46.7,41.4c-31.1,0-48.3-21.8-48.3-21.8L1931.9,372.7z"></path>            <path class="st6" d="M2039.1,296.2c0-2.8-1.6-4.4-4.4-4.4h-8.5v-22h25.3c9.5,0,13.5,4.2,13.5,13.5V384c0,2.8,1.6,4.4,4.4,4.4     h30.7c2.8,0,4.4-1.6,4.4-4.4v-8.5h23.6v21.4c0,9.5-4,13.5-13.5,13.5h-61.9c-9.5,0-13.5-4-13.5-13.5V296.2z"></path>		</g>	</g></g></svg>