<?xml version="1.0" encoding="UTF-8"?><svg id="uuid-08f50aea-a881-4760-b3e9-ea3b35fdcd17" xmlns="http://www.w3.org/2000/svg" viewBox="0 0 425.3 521.17"><defs><style>.uuid-6af74af6-ef59-4374-b355-15aabae73c20{fill:#f9c23e;}.uuid-86115448-8ec8-4d68-95bb-6c993364e1fc,.uuid-10660db3-05b3-4992-88ee-574ec7dbb26e{fill:#eeeeef;}.uuid-bc936226-3aa0-45ec-ab25-2799b9313a06{fill:#646970;}.uuid-10660db3-05b3-4992-88ee-574ec7dbb26e,.uuid-8bc9deb7-f27b-4cc1-880f-badd82d2a5cb{stroke:#dcdcdc;stroke-miterlimit:10;stroke-width:9px;}.uuid-8bc9deb7-f27b-4cc1-880f-badd82d2a5cb{fill:#fff;}</style></defs><path class="uuid-8bc9deb7-f27b-4cc1-880f-badd82d2a5cb" d="m4.5,91.9v303.5c0,19.3,15.6,34.9,34.9,34.9h346.5c19.3,0,34.9-15.6,34.9-34.9V91.9H4.5Z"/><path class="uuid-10660db3-05b3-4992-88ee-574ec7dbb26e" d="m4.5,91.9v-52.5C4.5,20.1,20.1,4.5,39.4,4.5h346.5c19.3,0,34.9,15.6,34.9,34.9v52.5"/><g><circle class="uuid-6af74af6-ef59-4374-b355-15aabae73c20" cx="61.15" cy="48.51" r="16.9"/><circle class="uuid-bc936226-3aa0-45ec-ab25-2799b9313a06" cx="116.35" cy="48.49" r="16.9"/><circle class="uuid-bc936226-3aa0-45ec-ab25-2799b9313a06" cx="171.65" cy="48.54" r="16.9"/></g><rect class="uuid-86115448-8ec8-4d68-95bb-6c993364e1fc" x="229.3" y="129.2" width="152.3" height="17.6"/><rect class="uuid-86115448-8ec8-4d68-95bb-6c993364e1fc" x="330.8" y="208.3" width="50.9" height="17.6"/><rect class="uuid-86115448-8ec8-4d68-95bb-6c993364e1fc" x="299.1" y="168.8" width="82.6" height="17.6"/><g><path class="uuid-6af74af6-ef59-4374-b355-15aabae73c20" d="m91,194.9c-48.7,38.7-56.8,109.6-18.1,158.2,38.7,48.7,109.6,56.8,158.2,18.1,48.7-38.7,56.8-109.6,18.1-158.2-38.7-48.7-109.6-56.8-158.2-18.1Zm122.7,154.3c-36.5,29-89.7,23-118.7-13.6-29-36.5-23-89.7,13.6-118.7,36.5-29,89.7-23,118.7,13.6,29,36.5,23,89.7-13.6,118.7Z"/><rect class="uuid-6af74af6-ef59-4374-b355-15aabae73c20" x="227.29" y="346.05" width="21" height="65.8" transform="translate(-184.21 230.41) rotate(-38.5)"/><rect class="uuid-6af74af6-ef59-4374-b355-15aabae73c20" x="268.77" y="382.65" width="52.7" height="137" transform="translate(-216.69 281.79) rotate(-38.5)"/></g><g><g><path class="uuid-bc936226-3aa0-45ec-ab25-2799b9313a06" d="m184.9,284.7l-64.5,20.1c-2.6.8-5.2-1.1-5.2-3.9v-60c0-2.2,1.8-4,4-4h37.3c1.3,0,2.6.7,3.3,1.8l27.2,40c1.5,2.2.5,5.3-2.1,6.1v-.1Z"/><rect x="115.2" y="254" width="94.3" height="69.6" rx="6.4" ry="6.4"/></g><g><rect class="uuid-6af74af6-ef59-4374-b355-15aabae73c20" x="157" y="298.1" width="11" height="10.4" rx="1.6" ry="1.6"/><path class="uuid-6af74af6-ef59-4374-b355-15aabae73c20" d="m167.6,291.6c0,.9-.8,1.6-1.6,1.6h-7.1c-.9,0-1.6-.7-1.6-1.6l-1-23.1c0-.9.7-1.7,1.6-1.7h9c.9,0,1.7.8,1.6,1.7l-1,23.1h.1Z"/></g></g></svg>